<?xml version="1.0" encoding="UTF-8" standalone="no"?>
<!-- Created with Inkscape (http://www.inkscape.org/) -->

<svg
   version="1.1"
   id="svg1859"
   xml:space="preserve"
   width="707.96399"
   height="735.98132"
   viewBox="0 0 707.96399 735.98132"
   sodipodi:docname="GitHub-Mark.ai.svg"
   inkscape:version="1.1.2 (b8e25be8, 2022-02-05)"
   xmlns:inkscape="http://www.inkscape.org/namespaces/inkscape"
   xmlns:sodipodi="http://sodipodi.sourceforge.net/DTD/sodipodi-0.dtd"
   xmlns="http://www.w3.org/2000/svg"
   xmlns:svg="http://www.w3.org/2000/svg"><defs
     id="defs1863"><clipPath
       clipPathUnits="userSpaceOnUse"
       id="clipPath1875"><path
         d="M 0,551.986 H 530.973 V 0 H 0 Z"
         id="path1873" /></clipPath></defs><sodipodi:namedview
     id="namedview1861"
     pagecolor="#ffffff"
     bordercolor="#666666"
     borderopacity="1.0"
     inkscape:pageshadow="2"
     inkscape:pageopacity="0.0"
     inkscape:pagecheckerboard="0"
     showgrid="false"
     inkscape:zoom="1.0177556"
     inkscape:cx="366.00144"
     inkscape:cy="364.03633"
     inkscape:window-width="1312"
     inkscape:window-height="999"
     inkscape:window-x="326"
     inkscape:window-y="25"
     inkscape:window-maximized="0"
     inkscape:current-layer="g1881" /><g
     id="g1865"
     inkscape:groupmode="layer"
     inkscape:label="GitHub-Mark"
     transform="matrix(1.3333333,0,0,-1.3333333,0,735.98133)"><g
       id="g1869"><g
         id="g1871"
         clip-path="url(#clipPath1875)"><g
           id="g2816"><g
             id="g1881"
             transform="translate(350.6088,493.5547)"><path
               d="m -85.122302,-39.814525 c -100.639418,0 -182.247678,-81.590155 -182.247678,-182.247685 0,-80.51878 52.2195,-148.83299 124.63209,-172.93129 9.10816,-1.68703 12.45204,3.95351 12.45204,8.76713 0,4.34283 -0.16901,18.70221 -0.24747,33.93076 -50.70148,-11.02455 -61.4001,21.50287 -61.4001,21.50287 -8.2903,21.06224 -20.23533,26.66656 -20.23533,26.66656 -16.53532,11.31126 1.24642,11.07888 1.24642,11.07888 18.30082,-1.28565 27.93712,-18.78369 27.93712,-18.78369 16.25465,-27.85866 42.63451,-19.80376 53.03435,-15.14707 1.63875,11.77602 6.35881,19.81885 11.5708,24.36991 -40.4797,4.60538 -83.03273,20.23532 -83.03273,90.06756 0,19.8943 7.11934,36.15499 18.77766,48.91788 -1.89225,4.59029 -8.13035,23.12651 1.76851,48.22978 0,0 15.30401,4.89511 50.12808,-18.6841 14.53744,4.03801 30.12815,6.06305 45.616238,6.13548 15.4881,-0.0724 31.090876,-2.09747 45.655481,-6.13548 34.7848384,23.57921 50.067714,18.6841 50.067714,18.6841 9.919987,-25.10327 3.681894,-43.63949 1.789642,-48.22978 11.685484,-12.76289 18.753512,-29.02358 18.753512,-48.91788 0,-70.00124 -42.634515,-85.41087 -83.216826,-89.9227 6.53687,-5.65563 12.361504,-16.74658 12.361504,-33.74968 0,-24.385 -0.208238,-44.0107 -0.208238,-50.0134 0,-4.85285 3.277489,-10.53263 12.51542,-8.746 72.376366,24.12545 124.529481,92.41552 124.529481,172.91016 0,100.65753 -81.59619,182.247685 -182.24769,182.247685"
               style="fill:#1b1817;fill-opacity:1;fill-rule:evenodd;stroke:none;stroke-width:3.01795"
               id="path1883" /></g><g
             id="g1885"
             transform="matrix(3.0179454,0,0,3.0179454,160.13843,190.54393)"><path
               d="m 0,0 c -0.133,-0.301 -0.605,-0.391 -1.035,-0.185 -0.439,0.198 -0.684,0.607 -0.542,0.908 0.13,0.308 0.602,0.394 1.04,0.188 C -0.099,0.714 0.151,0.301 0,0"
               style="fill:#1b1817;fill-opacity:1;fill-rule:nonzero;stroke:none"
               id="path1887" /></g><g
             id="g1889"
             transform="matrix(3.0179454,0,0,3.0179454,167.52123,182.30946)"><path
               d="M 0,0 C -0.288,-0.267 -0.852,-0.143 -1.233,0.279 -1.629,0.7 -1.702,1.264 -1.41,1.534 -1.113,1.801 -0.567,1.676 -0.172,1.255 0.224,0.829 0.301,0.271 0,0"
               style="fill:#1b1817;fill-opacity:1;fill-rule:nonzero;stroke:none"
               id="path1891" /></g><g
             id="g1893"
             transform="matrix(3.0179454,0,0,3.0179454,174.70666,171.81456)"><path
               d="M 0,0 C -0.37,-0.258 -0.976,-0.017 -1.35,0.52 -1.72,1.058 -1.72,1.702 -1.341,1.96 -0.967,2.218 -0.37,1.985 0.009,1.453 0.378,0.907 0.378,0.263 0,0"
               style="fill:#1b1817;fill-opacity:1;fill-rule:nonzero;stroke:none"
               id="path1895" /></g><g
             id="g1897"
             transform="matrix(3.0179454,0,0,3.0179454,184.55029,161.67305)"><path
               d="M 0,0 C -0.331,-0.365 -1.036,-0.267 -1.552,0.232 -2.08,0.718 -2.227,1.409 -1.896,1.774 -1.56,2.14 -0.851,2.037 -0.331,1.543 0.193,1.057 0.352,0.361 0,0"
               style="fill:#1b1817;fill-opacity:1;fill-rule:nonzero;stroke:none"
               id="path1899" /></g><g
             id="g1901"
             transform="matrix(3.0179454,0,0,3.0179454,198.13104,155.78474)"><path
               d="m 0,0 c -0.147,-0.473 -0.825,-0.687 -1.509,-0.486 -0.683,0.207 -1.13,0.76 -0.992,1.238 0.142,0.476 0.824,0.7 1.513,0.485 C -0.306,1.031 0.142,0.481 0,0"
               style="fill:#1b1817;fill-opacity:1;fill-rule:nonzero;stroke:none"
               id="path1903" /></g><g
             id="g1905"
             transform="matrix(3.0179454,0,0,3.0179454,213.04694,154.69405)"><path
               d="m 0,0 c 0.017,-0.498 -0.563,-0.911 -1.281,-0.92 -0.722,-0.016 -1.307,0.387 -1.315,0.877 0,0.503 0.568,0.911 1.289,0.924 C -0.589,0.895 0,0.494 0,0"
               style="fill:#1b1817;fill-opacity:1;fill-rule:nonzero;stroke:none"
               id="path1907" /></g><g
             id="g1909"
             transform="matrix(3.0179454,0,0,3.0179454,226.92526,157.05499)"><path
               d="m 0,0 c 0.086,-0.485 -0.413,-0.984 -1.126,-1.117 -0.701,-0.129 -1.35,0.172 -1.439,0.653 -0.087,0.498 0.42,0.997 1.121,1.126 C -0.73,0.786 -0.091,0.494 0,0"
               style="fill:#1b1817;fill-opacity:1;fill-rule:nonzero;stroke:none"
               id="path1911" /></g></g></g></g></g></svg>
